<?xml version="1.0" encoding="utf-8"?>
<!-- Generator: Adobe Illustrator 16.0.0, SVG Export Plug-In . SVG Version: 6.00 Build 0)  -->
<!DOCTYPE svg PUBLIC "-//W3C//DTD SVG 1.1//EN" "http://www.w3.org/Graphics/SVG/1.1/DTD/svg11.dtd">
<svg version="1.1" id="Layer_1" xmlns="http://www.w3.org/2000/svg" xmlns:xlink="http://www.w3.org/1999/xlink" x="0px" y="0px"
	 width="789.5px" height="500.001px" viewBox="0 0 789.5 500.001" enable-background="new 0 0 789.5 500.001" xml:space="preserve">
<g>
	<polygon fill="#9B2063" points="0,500.001 237.269,500.001 400.663,290 523.999,-1 0,-1 	"/>
	<polygon fill="#831453" points="237.269,500.001 790.501,500.001 790.501,-1 523.999,-1 400.663,290 	"/>
</g>
<rect x="-8" y="-627" fill="#9B2063" width="514" height="515"/>
<polygon fill="#831453" points="678.5,-688.5 417.5,-688.5 265.557,-330 70.5,-80.5 531.5,-93.5 "/>
<g>
	
		<line fill="none" stroke="#FFFFFF" stroke-width="12.1203" stroke-miterlimit="10" x1="304.958" y1="98.681" x2="355.407" y2="94.836"/>
	
		<line fill="none" stroke="#FFFFFF" stroke-width="12.1203" stroke-miterlimit="10" x1="330.182" y1="96.759" x2="329.539" y2="143.941"/>
	
		<line fill="none" stroke="#FFFFFF" stroke-width="12.1203" stroke-miterlimit="10" x1="368.499" y1="88.442" x2="367.344" y2="141.304"/>
	
		<line fill="none" stroke="#FFFFFF" stroke-width="12.1203" stroke-miterlimit="10" x1="391.182" y1="86.803" x2="391.786" y2="139.742"/>
	
		<line fill="none" stroke="#FFFFFF" stroke-width="12.1203" stroke-miterlimit="10" x1="366.804" y1="116.003" x2="391.103" y2="114.224"/>
	<polyline fill="none" stroke="#FFFFFF" stroke-width="12.1203" stroke-miterlimit="10" points="450.659,88.521 409.91,91.219 
		409.319,134.561 450.36,131.667 	"/>
	
		<line fill="none" stroke="#FFFFFF" stroke-width="12.1203" stroke-miterlimit="10" x1="409.615" y1="112.889" x2="446.429" y2="109.806"/>
</g>
<path fill="none" stroke="#FFFFFF" stroke-width="27.5732" stroke-linejoin="bevel" stroke-miterlimit="10" d="M308.668,193.599
	l139.532-9.992l-99.679,81.497c0,0,154.856-16.544,114.461,82.185c-40.396,98.731-162.167,37.807-162.167,37.807"/>
</svg>
