<?xml version="1.0" encoding="utf-8"?>
<!-- Generator: Adobe Illustrator 16.0.0, SVG Export Plug-In . SVG Version: 6.00 Build 0)  -->
<!DOCTYPE svg PUBLIC "-//W3C//DTD SVG 1.1//EN" "http://www.w3.org/Graphics/SVG/1.1/DTD/svg11.dtd">
<svg version="1.1" id="Layer_1" xmlns="http://www.w3.org/2000/svg" xmlns:xlink="http://www.w3.org/1999/xlink" x="0px" y="0px"
	 width="400px" height="273px" viewBox="194.75 113.5 400 273" enable-background="new 194.75 113.5 400 273" xml:space="preserve">
<g>
	<polygon fill="#9B2063" points="129.255,416.616 291.335,416.616 402.951,273.162 487.203,74.377 129.255,74.377 	"/>
	<polygon fill="#831453" points="291.335,416.616 669.254,416.616 669.254,74.377 487.203,74.377 402.951,273.162 	"/>
</g>
<g>
	
		<line fill="none" stroke="#FFFFFF" stroke-width="8.2795" stroke-miterlimit="10" x1="337.575" y1="142.471" x2="372.037" y2="139.844"/>
	
		<line fill="none" stroke="#FFFFFF" stroke-width="8.2795" stroke-miterlimit="10" x1="354.806" y1="141.157" x2="354.366" y2="173.388"/>
	
		<line fill="none" stroke="#FFFFFF" stroke-width="8.2795" stroke-miterlimit="10" x1="380.98" y1="135.476" x2="380.191" y2="171.586"/>
	
		<line fill="none" stroke="#FFFFFF" stroke-width="8.2795" stroke-miterlimit="10" x1="396.475" y1="134.356" x2="396.888" y2="170.52"/>
	
		<line fill="none" stroke="#FFFFFF" stroke-width="8.2795" stroke-miterlimit="10" x1="379.822" y1="154.303" x2="396.421" y2="153.088"/>
	<polyline fill="none" stroke="#FFFFFF" stroke-width="8.2795" stroke-miterlimit="10" points="437.104,135.53 409.268,137.373 
		408.865,166.98 436.9,165.003 	"/>
	
		<line fill="none" stroke="#FFFFFF" stroke-width="8.2795" stroke-miterlimit="10" x1="409.067" y1="152.176" x2="434.215" y2="150.07"/>
</g>
<path fill="none" stroke="#FFFFFF" stroke-width="18.8355" stroke-linejoin="bevel" stroke-miterlimit="10" d="M340.109,207.31
	l95.316-6.826l-68.092,55.67c0,0,105.784-11.301,78.19,56.143c-27.596,67.443-110.779,25.826-110.779,25.826"/>
</svg>
