<?xml version="1.0" encoding="utf-8"?>
<!-- Generator: Adobe Illustrator 16.0.0, SVG Export Plug-In . SVG Version: 6.00 Build 0)  -->
<!DOCTYPE svg PUBLIC "-//W3C//DTD SVG 1.1//EN" "http://www.w3.org/Graphics/SVG/1.1/DTD/svg11.dtd">
<svg version="1.1" id="Layer_1" xmlns="http://www.w3.org/2000/svg" xmlns:xlink="http://www.w3.org/1999/xlink" x="0px" y="0px"
	 width="477.244px" height="212.47px" viewBox="-34.666 -44.667 477.244 212.47"
	 enable-background="new -34.666 -44.667 477.244 212.47" xml:space="preserve">
<rect x="-34.666" y="-44.667" fill="#E4E5E6" width="477.244" height="212.47"/>
<g>
	<g>
		<path fill="#80297F" d="M149.376,53.059l-1.817-4.938h-6.957l-1.815,4.938h-5.004l8.603-22.038h3.666l8.603,22.038H149.376z
			 M144.749,39.931c-0.206-0.582-0.479-1.304-0.652-2.021h-0.067c-0.171,0.719-0.41,1.474-0.616,2.021l-1.475,4.045h4.284
			L144.749,39.931z"/>
		<path fill="#80297F" d="M164.114,53.503c-3.289,0-5.964-1.131-7.473-2.299v-22.55h4.867v9.426
			c0.651-0.517,2.296-1.028,3.907-1.028c4.284,0,7.813,3.05,7.813,7.95C173.231,49.801,170.179,53.503,164.114,53.503z
			 M164.524,41.472c-1.438,0-2.536,0.687-3.016,1.199v5.932c0.514,0.375,1.577,0.752,2.535,0.752c2.57,0,4.184-1.747,4.184-4.013
			C168.226,43.187,166.717,41.472,164.524,41.472z"/>
		<path fill="#80297F" d="M185.295,42.878c-0.311-0.173-0.994-0.376-1.509-0.376c-1.61,0-3.086,0.856-3.086,3.324v7.231h-5.037
			V37.532h4.97v3.461h0.034c0.515-2.433,2.331-3.734,4.422-3.734c0.479,0,1.062,0.069,1.439,0.206L185.295,42.878z"/>
		<path fill="#80297F" d="M190.916,35.405c-0.893,0-2.708-1.815-2.708-2.707c0-0.891,1.815-2.673,2.708-2.673
			c0.892,0,2.708,1.782,2.708,2.673C193.624,33.591,191.807,35.405,190.916,35.405z M188.381,53.059V37.531h5.072v15.527
			L188.381,53.059L188.381,53.059z"/>
		<path fill="#80297F" d="M210.932,44.42l-2.229,2.265h-7.608c0.24,1.269,1.955,2.707,4.594,2.707c1.609,0,3.256-0.479,4.283-1.164
			l-0.479,4.316c-1.166,0.618-2.948,1.028-4.937,1.028c-4.729,0-8.533-3.288-8.533-8.362c0-5.003,3.634-8.19,8.089-8.19
			c4.317,0,6.959,2.979,6.959,6.204C211.068,43.596,210.998,44.114,210.932,44.42z M204.109,40.788
			c-1.473,0-2.707,1.131-3.016,2.538h5.244c0-0.104,0.034-0.208,0.034-0.344C206.373,41.919,205.448,40.788,204.109,40.788z"/>
		<path fill="#80297F" d="M223.236,53.059v-9.53c0-1.129-0.756-2.124-2.297-2.124c-1.508,0-2.467,0.96-2.467,2.191v9.463h-5.039
			V37.53h4.627v2.093h0.033c0.619-1.646,2.229-2.571,4.729-2.571c3.396,0,5.449,1.922,5.449,5.211v10.799L223.236,53.059
			L223.236,53.059z"/>
		<path fill="#80297F" d="M243.012,53.059v-1.921h-0.035c-0.854,1.575-2.639,2.362-4.797,2.362c-3.808,0-7.476-2.878-7.476-8.189
			c0-5.005,3.565-8.262,7.886-8.262c1.645,0,3.325,0.55,3.939,1.063v-9.459h4.902v24.4L243.012,53.059L243.012,53.059z
			 M242.532,42.878c-0.479-0.648-1.509-1.405-3.052-1.405c-2.192,0-3.735,1.715-3.735,3.941c0,2.229,1.543,3.941,3.735,3.941
			c1.476,0,2.502-0.787,3.052-1.61V42.878z"/>
		<path fill="#80297F" d="M258.436,53.537c-4.694,0-8.467-3.325-8.467-8.26c0-4.937,3.771-8.26,8.467-8.26
			c4.66,0,8.465,3.321,8.465,8.26C266.9,50.214,263.096,53.537,258.436,53.537z M258.436,41.405c-1.885,0-3.496,1.644-3.496,3.942
			c0,2.296,1.611,3.938,3.496,3.938c1.851,0,3.496-1.645,3.496-3.938C261.932,43.049,260.285,41.405,258.436,41.405z"/>
		<path fill="#80297F" d="M285.684,44.455h-3.221v8.604h-5.106V31.193h8.33c3.733,0,7.062,2.501,7.062,6.615
			C292.744,41.919,289.455,44.455,285.684,44.455z M284.93,35.477h-2.467v4.899h2.467c1.371,0,2.707-0.754,2.707-2.433
			C287.637,36.298,286.299,35.477,284.93,35.477z"/>
		<path fill="#80297F" d="M305.426,53.059v-2.126h-0.035c-0.615,1.645-2.262,2.569-4.764,2.569c-3.395,0-5.449-1.887-5.449-5.176
			V37.53h5.039v9.53c0,1.129,0.787,2.122,2.33,2.122c1.508,0,2.434-0.993,2.434-2.229v-9.427h5.037v15.529h-4.592V53.059
			L305.426,53.059z"/>
		<path fill="#80297F" d="M327.325,44.42l-2.229,2.265h-7.608c0.24,1.269,1.953,2.707,4.595,2.707c1.608,0,3.256-0.479,4.282-1.164
			l-0.479,4.316c-1.166,0.618-2.948,1.028-4.938,1.028c-4.729,0-8.532-3.288-8.532-8.362c0-5.003,3.636-8.19,8.089-8.19
			c4.316,0,6.959,2.979,6.959,6.204C327.465,43.596,327.395,44.114,327.325,44.42z M320.506,40.788
			c-1.476,0-2.707,1.131-3.017,2.538h5.244c0-0.104,0.032-0.208,0.032-0.344C322.768,41.919,321.844,40.788,320.506,40.788z"/>
		<path fill="#80297F" d="M339.459,42.878c-0.308-0.173-0.994-0.376-1.506-0.376c-1.611,0-3.086,0.856-3.086,3.324v7.231h-5.037
			V37.532h4.969v3.461h0.035c0.514-2.433,2.33-3.734,4.42-3.734c0.479,0,1.063,0.069,1.44,0.206L339.459,42.878z"/>
		<path fill="#80297F" d="M353.094,41.646h-4.045v5.758c0,1.337,0.719,1.886,2.057,1.886c0.582,0,0.924-0.033,1.302-0.206
			l-0.444,3.804c-0.479,0.24-1.336,0.411-2.332,0.411c-3.496,0-5.584-1.851-5.584-4.934v-6.717h-2.607v-4.114h2.607v-3.323l5-1.815
			v5.141h5.004L353.094,41.646z"/>
		<path fill="#80297F" d="M366.693,53.743c-0.926-0.206-1.987-0.925-2.396-2.055c-0.688,1.268-2.16,1.884-4.046,1.884
			c-2.743,0-5.176-1.919-5.176-5.139c0-2.849,2.229-4.767,5.313-5.072l3.084-0.312v-0.514c0-0.927-0.754-1.543-2.435-1.543
			c-1.509,0-3.188,0.48-4.317,1.199l-0.892-3.807c1.269-0.82,3.394-1.368,5.448-1.368c4.113,0,7.025,1.887,7.025,5.618v5.072
			c0,1.818,0.688,2.777,1.887,3.223L366.693,53.743z M363.471,46.273l-1.888,0.171c-1.302,0.102-1.886,1.027-1.886,1.953
			c0,0.82,0.619,1.508,1.576,1.508c1.199,0,2.193-0.927,2.193-2.265L363.471,46.273L363.471,46.273z"/>
		<path fill="#80297F" d="M376.939,53.401c-2.123,0-3.664-0.446-4.934-1.097l-0.445-4.455c1.371,0.96,3.152,1.679,4.867,1.679
			c0.924,0,1.508-0.481,1.508-1.062c0-0.649-0.516-0.926-1.406-1.199c-2.98-0.855-4.766-2.363-4.766-5.072
			c0-3.05,2.467-5.002,5.826-5.002c1.922,0,3.805,0.515,4.594,0.927l-0.856,3.7c-0.755-0.41-1.987-0.857-3.222-0.857
			c-0.822,0-1.371,0.379-1.371,0.995c0,0.583,0.41,0.892,1.371,1.131c3.498,0.925,4.935,2.674,4.935,5.278
			C383.041,51.001,381.121,53.401,376.939,53.401z"/>
		<path fill="#D9272E" d="M163.711,87.085c-6.031,0-11.788-4.422-11.788-11.479c0-6.992,5.725-11.445,11.788-11.445
			c6.032,0,11.757,4.422,11.757,11.445C175.468,82.628,169.778,87.085,163.711,87.085z M163.711,68.921
			c-3.289,0-6.373,2.675-6.373,6.75c0,4.08,3.084,6.752,6.373,6.752c3.257,0,6.376-2.672,6.376-6.752
			C170.087,71.593,166.967,68.921,163.711,68.921z"/>
		<path fill="#D9272E" d="M186.915,87.016c-1.646,0-3.325-0.517-3.94-1.029v8.5h-4.903V71.044h4.423v1.922h0.033
			c0.856-1.575,2.641-2.364,4.8-2.364c3.804,0,7.472,2.879,7.472,8.192C194.8,83.796,191.234,87.016,186.915,87.016z
			 M186.024,74.985c-1.475,0-2.502,0.789-3.05,1.611v4.866c0.479,0.65,1.508,1.371,3.05,1.371c2.193,0,3.736-1.678,3.736-3.908
			C189.76,76.7,188.217,74.985,186.024,74.985z"/>
		<path fill="#D9272E" d="M211.523,77.934l-2.229,2.264h-7.609c0.242,1.268,1.955,2.707,4.594,2.707c1.611,0,3.257-0.48,4.285-1.164
			l-0.479,4.318c-1.166,0.616-2.947,1.026-4.936,1.026c-4.729,0-8.534-3.289-8.534-8.36c0-5.007,3.633-8.191,8.088-8.191
			c4.317,0,6.957,2.98,6.957,6.205C211.659,77.112,211.594,77.626,211.523,77.934z M204.703,74.301
			c-1.474,0-2.707,1.132-3.017,2.535h5.243c0-0.104,0.033-0.207,0.033-0.342C206.965,75.432,206.041,74.301,204.703,74.301z"/>
		<path fill="#D9272E" d="M223.828,86.573v-9.529c0-1.131-0.755-2.125-2.298-2.125c-1.508,0-2.467,0.961-2.467,2.193v9.461h-5.039
			V71.046h4.627v2.091h0.035c0.616-1.646,2.229-2.57,4.729-2.57c3.393,0,5.449,1.922,5.449,5.211v10.797L223.828,86.573
			L223.828,86.573z"/>
		<path fill="#D9272E" d="M234.59,68.921c-0.892,0-2.707-1.813-2.707-2.707c0-0.893,1.815-2.674,2.707-2.674
			s2.709,1.781,2.709,2.674C237.299,67.107,235.482,68.921,234.59,68.921z M232.055,86.573V71.044h5.072v15.529H232.055
			L232.055,86.573z"/>
		<path fill="#D9272E" d="M250.116,86.573v-9.529c0-1.131-0.754-2.125-2.297-2.125c-1.511,0-2.47,0.961-2.47,2.193v9.461h-5.036
			V71.046h4.625v2.091h0.034c0.617-1.646,2.229-2.57,4.73-2.57c3.393,0,5.448,1.922,5.448,5.211v10.797L250.116,86.573
			L250.116,86.573z"/>
		<path fill="#D9272E" d="M265.094,94.487c-4.523,0-7.537-2.568-7.537-5.826c0-2.363,1.574-3.768,3.187-4.178l-1.985-1.99
			c0.137-0.992,0.994-1.85,1.885-2.227c-1.166-0.722-2.264-2.193-2.264-4.146c0-3.291,2.364-5.588,6.409-5.588
			c0.927,0,1.646,0.139,2.298,0.309c0.686,0.171,1.438,0.273,2.229,0.273c0.855,0,1.746-0.207,2.435-0.516l0.925,3.84
			c-0.48,0.272-1.234,0.514-1.92,0.479c0.174,0.312,0.377,1.031,0.377,1.578c0,2.605-2.057,4.797-5.072,5.004
			c-0.617,0.033-1.029,0.17-1.029,0.582c0,0.172,0.141,0.375,0.412,0.479l2.396,0.856c3.051,1.099,4.695,2.64,4.695,5.482
			C272.532,92.091,269.616,94.487,265.094,94.487z M266.157,87.188l-1.853-0.515c-1.199,0.033-2.088,0.892-2.088,2.021
			c0,1.062,0.924,1.953,2.739,1.953c1.782,0,2.741-0.824,2.741-1.715C267.7,88.216,267.15,87.462,266.157,87.188z M264.787,74.198
			c-1.132,0-1.988,0.855-1.988,1.854c0,1.029,0.856,1.853,1.988,1.853c1.096,0,1.985-0.822,1.985-1.853
			C266.773,75.053,265.95,74.198,264.787,74.198z"/>
		<path fill="#D9272E" d="M290.045,86.573h-7.369V64.706h7.369c6.271,0,11.724,4.111,11.724,10.935
			C301.768,82.423,296.352,86.573,290.045,86.573z M289.532,69.059h-1.714v13.19h1.714c3.771,0,6.89-2.192,6.89-6.58
			C296.42,71.284,293.336,69.059,289.532,69.059z"/>
		<path fill="#D9272E" d="M312.254,87.05c-4.695,0-8.465-3.321-8.465-8.26c0-4.936,3.77-8.26,8.465-8.26
			c4.662,0,8.467,3.324,8.467,8.26C320.721,83.727,316.916,87.05,312.254,87.05z M312.254,74.919c-1.885,0-3.494,1.646-3.494,3.939
			c0,2.299,1.609,3.94,3.494,3.94c1.854,0,3.498-1.643,3.498-3.94C315.752,76.563,314.107,74.919,312.254,74.919z"/>
		<path fill="#D9272E" d="M331.037,87.05c-4.695,0-8.466-3.321-8.466-8.26c0-4.936,3.771-8.26,8.466-8.26
			c4.661,0,8.465,3.324,8.465,8.26C339.502,83.727,335.7,87.05,331.037,87.05z M331.037,74.919c-1.888,0-3.496,1.646-3.496,3.939
			c0,2.299,1.608,3.94,3.496,3.94c1.852,0,3.495-1.643,3.495-3.94C334.532,76.563,332.889,74.919,331.037,74.919z"/>
		<path fill="#D9272E" d="M351.566,76.393c-0.307-0.175-0.994-0.379-1.508-0.379c-1.611,0-3.084,0.858-3.084,3.323v7.232h-5.037
			V71.044h4.97v3.463h0.032c0.515-2.434,2.33-3.733,4.422-3.733c0.479,0,1.064,0.067,1.441,0.207L351.566,76.393z"/>
		<path fill="#D9272E" d="M359.553,86.913c-2.125,0-3.666-0.442-4.935-1.094l-0.446-4.457c1.371,0.961,3.152,1.68,4.866,1.68
			c0.927,0,1.509-0.479,1.509-1.062c0-0.652-0.516-0.926-1.406-1.199c-2.981-0.857-4.762-2.365-4.762-5.072
			c0-3.051,2.465-5.004,5.822-5.004c1.921,0,3.807,0.515,4.596,0.926l-0.857,3.699c-0.754-0.408-1.987-0.854-3.223-0.854
			c-0.82,0-1.369,0.379-1.369,0.993c0,0.585,0.41,0.894,1.369,1.132c3.496,0.928,4.938,2.674,4.938,5.278
			C365.654,84.516,363.734,86.913,359.553,86.913z"/>
	</g>
	<g>
		<ellipse fill="#80297F" cx="98.442" cy="60.474" rx="2.729" ry="2.65"/>
		<rect x="19.342" y="21.698" opacity="0.8" fill="#5BB3CF" enable-background="new    " width="47.434" height="67.585"/>
		<path fill="#258691" stroke="#FFFFFF" stroke-width="1.62" stroke-miterlimit="10" d="M68.06,88.507H16.02
			c0,0,10.772-8.563,25.466-13.118c15.349-4.755,26.114-3.277,26.114-3.277L68.06,88.507z"/>
		<path fill="#258691" stroke="#FFFFFF" stroke-width="1.62" stroke-miterlimit="10" d="M14.368,88.887h50.806
			c0,0-10.72-8.742-25.468-13.117c-13.938-4.136-24.467-3.279-24.467-3.279L14.368,88.887z"/>
		<path fill="#EB8C23" stroke="#FFFFFF" stroke-width="1.62" stroke-miterlimit="10" d="M39.559,75.706c0,0,3.084,1.099,3.635,2.812
			c0.575,1.801-0.375,3.485-5.469,4.409c-13.451,2.445-16.268,6.093-16.268,6.093H66.83c0,0-2.254-5.908-10.068-9.474
			C48.077,75.581,39.559,75.706,39.559,75.706z"/>
		<polygon fill="none" points="18.931,21.011 18.931,89.284 20.165,89.284 20.165,21.835 65.815,21.835 65.815,89.284 
			67.462,89.284 67.462,21.011 		"/>
		<g>
			<polygon fill="#80297F" points="66.638,90.104 66.638,21.835 19.754,21.835 19.754,90.104 13.997,90.104 13.997,16.078 
				72.396,16.078 72.396,90.104 			"/>
			<path fill="#FFFFFF" d="M71.575,16.899v72.385h-4.113V21.012h-48.53v68.27h-4.113V16.899H71.575 M73.217,15.253h-1.644H14.819
				h-1.644v1.646v72.385v1.643h1.645h4.112h1.646v-1.643V22.658h45.238v66.624v1.645h1.646h4.113h1.644v-1.645V16.899L73.217,15.253
				L73.217,15.253z"/>
		</g>
		<g>
			<g>
				<path fill="#FAE30A" d="M44.403,34.92c1.729,0.31,3.264-7.079,1.344-7.871c-0.17-0.053-0.269-0.132-0.577,0
					C43.989,27.319,42.526,34.585,44.403,34.92z"/>
			</g>
			<g>
				<path fill="#FAE30A" d="M36.726,35.112c1.658-0.833-2.057-7.862-3.455-7.295c-0.521,0.221-0.259,1.074-0.215,1.69
					C33.245,32.194,35.379,35.565,36.726,35.112z"/>
			</g>
			<g>
				<path fill="#FAE30A" d="M56.522,35.602c0.319-0.352,0.778-0.782,0.741-1.066c-0.049-0.126-0.19-0.384-0.319-0.526
					c-0.36-0.403-0.742-0.588-1.27-0.294c-0.298,0.211-0.743,0.513-1.709,1.096c-1.477,0.909-3.447,1.789-2.654,3.181
					C52.266,38.997,55.262,36.975,56.522,35.602z"/>
			</g>
			<g>
				<path fill="#FAE30A" d="M32.886,39.142c0.545-1.766-3.295-3.998-5.491-4.607c-0.724-0.205-1.268-0.228-1.418,0.001
					c-0.359,0.523,0.332,1.207,0.916,1.848C28.549,38.211,31.95,39.958,32.886,39.142z"/>
			</g>
			<g>
				<path fill="#FAE30A" d="M62.254,43.172c-0.228-1.561-4.853-0.686-7.097,0.403c-0.338,0.18-0.94,0.447-0.967,0.748
					c0.042,1.161,0.704,1.36,2.163,1.262C58.146,45.352,62.517,44.259,62.254,43.172z"/>
			</g>
			<g>
				<path fill="#FAE30A" d="M31.543,44.517c0.012-2.216-6.523-1.936-7.679-0.192v0.386C24.459,46.016,31.355,46.413,31.543,44.517z"
					/>
			</g>
			<g>
				<path fill="#FAE30A" d="M57.838,51.042c-1.416-0.973-2.816-2.264-4.667-2.108c-0.396,0.598-0.643,0.83-0.516,1.532
					c1.959,1.519,6.684,4.368,7.103,3.647C60.929,52.447,58.907,51.777,57.838,51.042z"/>
			</g>
			<g>
				<path fill="#FAE30A" d="M27.648,53.466c-0.21,0.344-0.54,0.569-0.329,1.03c0.252,0.416,0.975,0.153,1.465-0.016
					c1.861-0.804,4.438-1.973,3.719-3.248C31.618,49.786,28.878,51.881,27.648,53.466z"/>
			</g>
			<g>
				<path fill="#FAE30A" d="M48.396,54.306c-0.463,0.527-0.246,1.016,0.11,1.973c0.831,2.224,2.809,5.32,3.959,5.128
					c0.479-0.146,0.892-0.363,0.958-0.959c-0.13-0.791-0.876-2.216-1.246-3.159C51.233,54.886,49.855,52.581,48.396,54.306z"/>
			</g>
			<g>
				<path fill="#FAE30A" d="M43.636,56.033c-1.631,0.049-1.681,4.125-0.978,6.438c0.162,0.526,0.291,1.098,0.633,1.247
					c0.376,0.062,0.64-0.155,0.876-0.543C45.233,61.423,44.877,56.03,43.636,56.033z"/>
			</g>
			<g>
				<path fill="#FAE30A" d="M51.032,49.896c1.486-2.087,2.473-5.537,1.049-9.026c-4.25-8.232-18.967,1.136-11.325,8.255
					c2.545,1.572,4.905-0.076,5.858-1.793c1.183-2.128,0.787-5.162-1.73-5.027c-0.535,0.05-1.592,0.064-2.018,0.869
					c-0.701,1.583,2.018,1.85,0.192,2.688c-0.694-0.111-1.368-1.037-1.388-1.703c-0.7-3.115,6.771-6.594,7.913-1.562
					c0.979,4.321-3.565,8.263-6.909,8.64c-8.126,0.913-7.753-7.655-4.03-10.94c2.864-2.525,3.263-2.628,2.688-4.413
					c-1.091-3.06-6.013,1.693-7.88,5.366c-3.002,5.908,1.668,13.463,8.255,13.031C45.225,54.045,48.979,52.779,51.032,49.896z"/>
			</g>
			<g>
				<path fill="#FAE30A" d="M37.876,54.88c-1.881-0.178-4.6,6.055-3.646,6.91C35.732,62.327,40.11,55.763,37.876,54.88z"/>
			</g>
		</g>
		<g>
			<polygon fill="#EB8C23" points="66.843,89.671 66.843,21.911 94.385,14.585 94.385,102.602 			"/>
			<path fill="#FFFFFF" d="M93.768,15.386v86.243L67.461,89.282V22.385L93.768,15.386 M95.004,13.781l-1.554,0.413l-26.308,6.999
				l-0.917,0.245v0.946v66.897v0.783l0.709,0.332l26.309,12.35l1.758,0.824v-1.941V15.386v-1.605H95.004L95.004,13.781z"/>
		</g>
		<rect x="95.278" y="15.386" fill="#D9272E" width="3.164" height="86.503"/>
		<ellipse fill="#80297F" cx="88.435" cy="60.631" rx="2.888" ry="2.807"/>
	</g>
</g>
</svg>
