<?xml version="1.0" encoding="utf-8"?>
<!-- Generator: Adobe Illustrator 16.0.0, SVG Export Plug-In . SVG Version: 6.00 Build 0)  -->
<!DOCTYPE svg PUBLIC "-//W3C//DTD SVG 1.1//EN" "http://www.w3.org/Graphics/SVG/1.1/DTD/svg11.dtd">
<svg version="1.1" id="Layer_1" xmlns="http://www.w3.org/2000/svg" xmlns:xlink="http://www.w3.org/1999/xlink" x="0px" y="0px"
	 width="500px" height="500px" viewBox="0 0 500 500" enable-background="new 0 0 500 500" xml:space="preserve">
<linearGradient id="SVGID_1_" gradientUnits="userSpaceOnUse" x1="248.9995" y1="-6" x2="248.9995" y2="509.0005">
	<stop  offset="0" style="stop-color:#F7931E"/>
	<stop  offset="1" style="stop-color:#F57D20"/>
</linearGradient>
<rect x="-8" y="-6" fill="url(#SVGID_1_)" width="514" height="515"/>
<g>
	<path fill="#FFFFFF" d="M82.325,236.913l-2.809-7.603H68.827l-2.794,7.603h-7.7l13.229-33.895h5.642l13.229,33.895H82.325z
		 M75.207,216.717c-0.328-0.89-0.739-2.006-1.003-3.111h-0.113c-0.264,1.105-0.626,2.271-0.944,3.111l-2.26,6.224h6.585
		L75.207,216.717z"/>
	<path fill="#FFFFFF" d="M104.981,237.588c-5.059,0-9.173-1.741-11.487-3.532v-34.667h7.48v14.481
		c1.008-0.793,3.537-1.586,6.008-1.586c6.596,0,12.021,4.697,12.021,12.231C119.004,231.894,114.316,237.588,104.981,237.588z
		 M105.613,219.095c-2.217,0-3.899,1.037-4.639,1.84v9.119c0.788,0.577,2.422,1.154,3.899,1.154c3.958,0,6.429-2.69,6.429-6.164
		C111.303,221.727,108.988,219.095,105.613,219.095z"/>
	<path fill="#FFFFFF" d="M137.556,221.247c-0.47-0.264-1.521-0.587-2.324-0.587c-2.466,0-4.745,1.341-4.745,5.128v11.125h-7.745
		v-23.885h7.651v5.313h0.049c0.798-3.729,3.592-5.734,6.801-5.734c0.739,0,1.634,0.107,2.217,0.313L137.556,221.247z"/>
	<path fill="#FFFFFF" d="M146.2,209.76c-1.37,0-4.163-2.798-4.163-4.168s2.793-4.109,4.163-4.109s4.163,2.739,4.163,4.109
		S147.57,209.76,146.2,209.76z M142.301,236.913v-23.885h7.809v23.885H142.301z"/>
	<path fill="#FFFFFF" d="M176.983,223.615l-3.425,3.493h-11.707c0.376,1.947,3.014,4.159,7.069,4.159c2.48,0,5-0.734,6.585-1.791
		l-0.729,6.634c-1.8,0.959-4.535,1.585-7.588,1.585c-7.284,0-13.131-5.059-13.131-12.866c0-7.691,5.592-12.594,12.441-12.594
		c6.634,0,10.699,4.58,10.699,9.54C177.198,222.363,177.091,223.146,176.983,223.615z M166.489,218.038
		c-2.256,0-4.153,1.731-4.638,3.895h8.072c0-0.157,0.049-0.323,0.049-0.519C169.973,219.77,168.544,218.038,166.489,218.038z"/>
	<path fill="#FFFFFF" d="M195.902,236.913v-14.668c0-1.722-1.149-3.268-3.522-3.268c-2.324,0-3.802,1.478-3.802,3.386v14.55h-7.744
		v-23.885h7.113v3.209h0.049c0.944-2.524,3.439-3.953,7.275-3.953c5.22,0,8.39,2.955,8.39,8.014v16.615H195.902L195.902,236.913z"/>
	<path fill="#FFFFFF" d="M226.318,236.913v-2.955h-0.044c-1.321,2.417-4.07,3.63-7.388,3.63c-5.847,0-11.487-4.433-11.487-12.593
		c0-7.691,5.484-12.711,12.118-12.711c2.529,0,5.123,0.852,6.062,1.635v-14.551h7.545v37.545H226.318L226.318,236.913z
		 M225.579,221.247c-0.733-0.998-2.323-2.152-4.682-2.152c-3.376,0-5.748,2.632-5.748,6.047c0,3.435,2.372,6.076,5.748,6.076
		c2.266,0,3.851-1.213,4.682-2.495V221.247z"/>
	<path fill="#FFFFFF" d="M250.047,237.637c-7.227,0-13.024-5.107-13.024-12.7s5.798-12.701,13.024-12.701
		c7.162,0,13.008,5.108,13.008,12.701S257.209,237.637,250.047,237.637z M250.047,218.978c-2.906,0-5.387,2.534-5.387,6.066
		s2.48,6.057,5.387,6.057c2.842,0,5.371-2.524,5.371-6.057S252.889,218.978,250.047,218.978z"/>
	<path fill="#FFFFFF" d="M291.959,223.664h-4.96v13.249h-7.848v-33.631h12.808c5.734,0,10.842,3.836,10.842,10.167
		C302.801,219.77,297.742,223.664,291.959,223.664z M290.795,209.868h-3.796v7.524h3.796c2.104,0,4.169-1.155,4.169-3.738
		C294.964,211.13,292.898,209.868,290.795,209.868z"/>
	<path fill="#FFFFFF" d="M322.312,236.913v-3.269h-0.068c-0.949,2.515-3.464,3.943-7.309,3.943c-5.235,0-8.376-2.906-8.376-7.965
		v-16.595h7.739v14.657c0,1.732,1.214,3.259,3.592,3.259c2.318,0,3.728-1.526,3.728-3.425v-14.491h7.77v23.885H322.312
		L322.312,236.913z"/>
	<path fill="#FFFFFF" d="M355.991,223.615l-3.435,3.493h-11.692c0.361,1.947,2.994,4.159,7.064,4.159
		c2.466,0,5.01-0.734,6.585-1.791l-0.724,6.634c-1.791,0.959-4.551,1.585-7.604,1.585c-7.289,0-13.121-5.059-13.121-12.866
		c0-7.691,5.587-12.594,12.446-12.594c6.634,0,10.694,4.58,10.694,9.54C356.206,222.363,356.089,223.146,355.991,223.615z
		 M345.512,218.038c-2.28,0-4.168,1.731-4.647,3.895h8.053c0-0.157,0.078-0.323,0.078-0.519
		C348.995,219.77,347.566,218.038,345.512,218.038z"/>
	<path fill="#FFFFFF" d="M374.66,221.247c-0.488-0.264-1.526-0.587-2.328-0.587c-2.466,0-4.746,1.341-4.746,5.128v11.125h-7.749
		v-23.885h7.651v5.313h0.049c0.773-3.729,3.581-5.734,6.801-5.734c0.733,0,1.624,0.107,2.211,0.313L374.66,221.247z"/>
	<path fill="#FFFFFF" d="M395.62,219.359h-6.224v8.845c0,2.055,1.115,2.906,3.15,2.906c0.891,0,1.429-0.059,2.006-0.322
		l-0.675,5.851c-0.724,0.362-2.055,0.637-3.581,0.637c-5.372,0-8.591-2.848-8.591-7.594v-10.322h-4.021v-6.321h4.021v-5.117
		l7.69-2.799v7.916h7.681L395.62,219.359z"/>
	<path fill="#FFFFFF" d="M416.54,237.96c-1.429-0.323-3.073-1.429-3.709-3.16c-1.037,1.938-3.317,2.896-6.223,2.896
		c-4.208,0-7.936-2.944-7.936-7.905c0-4.384,3.415-7.319,8.16-7.789l4.746-0.489v-0.783c0-1.429-1.165-2.377-3.729-2.377
		c-2.329,0-4.922,0.743-6.663,1.839l-1.38-5.841c1.967-1.263,5.234-2.114,8.405-2.114c6.312,0,10.793,2.906,10.793,8.65v7.788
		c0,2.809,1.066,4.276,2.905,4.971L416.54,237.96z M411.579,226.473l-2.906,0.264c-1.986,0.147-2.906,1.576-2.906,3.004
		c0,1.263,0.969,2.319,2.446,2.319c1.84,0,3.366-1.419,3.366-3.483V226.473L411.579,226.473z"/>
	<path fill="#FFFFFF" d="M432.293,237.432c-3.268,0-5.636-0.694-7.593-1.683l-0.685-6.85c2.113,1.478,4.843,2.573,7.485,2.573
		c1.428,0,2.318-0.734,2.318-1.634c0-1.008-0.792-1.429-2.152-1.84c-4.599-1.321-7.339-3.64-7.339-7.809
		c0-4.687,3.807-7.681,8.963-7.681c2.955,0,5.861,0.782,7.064,1.409l-1.33,5.704c-1.155-0.646-3.043-1.331-4.932-1.331
		c-1.292,0-2.113,0.578-2.113,1.527c0,0.909,0.636,1.379,2.113,1.741c5.372,1.429,7.573,4.119,7.573,8.121
		C441.667,233.732,438.712,237.432,432.293,237.432z"/>
	<path fill="#FFFFFF" d="M104.365,289.242c-9.28,0-18.131-6.811-18.131-17.662c0-10.753,8.801-17.603,18.131-17.603
		c9.271,0,18.072,6.801,18.072,17.603C122.438,282.383,113.7,289.242,104.365,289.242z M104.365,261.297
		c-5.059,0-9.805,4.119-9.805,10.372c0,6.291,4.746,10.391,9.805,10.391c5.015,0,9.805-4.1,9.805-10.391
		C114.17,265.416,109.38,261.297,104.365,261.297z"/>
	<path fill="#FFFFFF" d="M140.051,289.125c-2.529,0-5.107-0.793-6.062-1.585v13.092h-7.529v-36.067h6.79v2.955h0.059
		c1.307-2.427,4.056-3.64,7.373-3.64c5.856,0,11.497,4.433,11.497,12.603C152.179,284.174,146.694,289.125,140.051,289.125z
		 M138.681,270.622c-2.275,0-3.846,1.223-4.691,2.475v7.496c0.733,1.008,2.323,2.104,4.691,2.104c3.366,0,5.739-2.583,5.739-5.998
		C144.42,273.273,142.047,270.622,138.681,270.622z"/>
	<path fill="#FFFFFF" d="M177.889,275.162l-3.425,3.483h-11.703c0.372,1.947,3.014,4.148,7.07,4.148c2.48,0,5.01-0.725,6.595-1.791
		l-0.739,6.645c-1.79,0.959-4.54,1.595-7.588,1.595c-7.275,0-13.136-5.068-13.136-12.877c0-7.681,5.592-12.583,12.446-12.583
		c6.644,0,10.699,4.589,10.699,9.54C178.108,273.899,178.001,274.692,177.889,275.162z M167.409,269.564
		c-2.266,0-4.164,1.762-4.639,3.914h8.063c0-0.156,0.059-0.312,0.059-0.538C170.883,271.326,169.464,269.564,167.409,269.564z"/>
	<path fill="#FFFFFF" d="M196.822,288.439v-14.647c0-1.742-1.165-3.269-3.537-3.269c-2.31,0-3.797,1.478-3.797,3.376v14.54h-7.75
		v-23.875h7.119v3.21h0.059c0.944-2.524,3.425-3.943,7.274-3.943c5.221,0,8.376,2.955,8.376,8.014v16.595H196.822L196.822,288.439z"
		/>
	<path fill="#FFFFFF" d="M213.368,261.297c-1.37,0-4.163-2.789-4.163-4.159c0-1.369,2.793-4.119,4.163-4.119s4.163,2.75,4.163,4.119
		C217.531,258.508,214.738,261.297,213.368,261.297z M209.469,288.439v-23.875h7.809v23.875H209.469z"/>
	<path fill="#FFFFFF" d="M237.238,288.439v-14.647c0-1.742-1.149-3.269-3.522-3.269c-2.324,0-3.802,1.478-3.802,3.376v14.54h-7.734
		v-23.875h7.108v3.21h0.059c0.944-2.524,3.415-3.943,7.261-3.943c5.229,0,8.39,2.955,8.39,8.014v16.595H237.238L237.238,288.439z"/>
	<path fill="#FFFFFF" d="M260.286,300.632c-6.962,0-11.595-3.963-11.595-8.973c0-3.631,2.421-5.803,4.901-6.429l-3.052-3.062
		c0.205-1.526,1.525-2.848,2.896-3.415c-1.795-1.115-3.488-3.376-3.488-6.39c0-5.049,3.645-8.581,9.863-8.581
		c1.414,0,2.529,0.205,3.527,0.47c1.066,0.264,2.231,0.421,3.415,0.421c1.331,0,2.69-0.313,3.757-0.793l1.429,5.91
		c-0.733,0.421-1.888,0.782-2.955,0.733c0.265,0.47,0.578,1.586,0.578,2.417c0,4.021-3.171,7.388-7.799,7.701
		c-0.949,0.059-1.585,0.264-1.585,0.899c0,0.265,0.215,0.578,0.636,0.734l3.688,1.321c4.697,1.683,7.212,4.051,7.212,8.434
		C271.715,296.923,267.243,300.632,260.286,300.632z M261.91,289.398l-2.848-0.792c-1.839,0.049-3.209,1.369-3.209,3.102
		c0,1.634,1.419,3.014,4.217,3.014c2.74,0,4.218-1.272,4.218-2.642C264.288,290.983,263.437,289.819,261.91,289.398z
		 M259.812,269.418c-1.742,0-3.062,1.312-3.062,2.848c0,1.575,1.32,2.848,3.062,2.848c1.688,0,3.048-1.272,3.048-2.848
		C262.859,270.729,261.607,269.418,259.812,269.418z"/>
	<path fill="#FFFFFF" d="M298.662,288.439h-11.351v-33.62h11.351c9.638,0,18.014,6.32,18.014,16.811
		C316.676,282.069,308.349,288.439,298.662,288.439z M297.859,261.502h-2.632v20.304h2.632c5.812,0,10.607-3.376,10.607-10.137
		C308.467,264.927,303.721,261.502,297.859,261.502z"/>
	<path fill="#FFFFFF" d="M332.821,289.193c-7.241,0-13.024-5.127-13.024-12.711c0-7.593,5.783-12.7,13.024-12.7
		c7.172,0,13.004,5.107,13.004,12.7C345.825,284.066,339.993,289.193,332.821,289.193z M332.821,270.523
		c-2.906,0-5.372,2.534-5.372,6.067c0,3.522,2.466,6.066,5.372,6.066c2.837,0,5.371-2.544,5.371-6.066
		C338.192,273.058,335.658,270.523,332.821,270.523z"/>
	<path fill="#FFFFFF" d="M361.705,289.193c-7.24,0-13.023-5.127-13.023-12.711c0-7.593,5.783-12.7,13.023-12.7
		c7.163,0,13.024,5.107,13.024,12.7C374.729,284.066,368.868,289.193,361.705,289.193z M361.705,270.523
		c-2.905,0-5.371,2.534-5.371,6.067c0,3.522,2.466,6.066,5.371,6.066c2.828,0,5.372-2.544,5.372-6.066
		C367.077,273.058,364.533,270.523,361.705,270.523z"/>
	<path fill="#FFFFFF" d="M393.271,272.784c-0.479-0.265-1.526-0.567-2.319-0.567c-2.476,0-4.745,1.311-4.745,5.107v11.115h-7.75
		v-23.875h7.651v5.333h0.05c0.792-3.747,3.581-5.753,6.8-5.753c0.725,0,1.624,0.107,2.202,0.312L393.271,272.784z"/>
	<path fill="#FFFFFF" d="M405.552,288.968c-3.269,0-5.646-0.675-7.584-1.683l-0.704-6.85c2.133,1.468,4.873,2.583,7.505,2.583
		c1.409,0,2.329-0.743,2.329-1.634c0-1.008-0.803-1.429-2.183-1.84c-4.569-1.33-7.309-3.649-7.309-7.808
		c0-4.697,3.776-7.701,8.953-7.701c2.954,0,5.841,0.783,7.045,1.429l-1.302,5.686c-1.164-0.627-3.053-1.321-4.961-1.321
		c-1.262,0-2.113,0.587-2.113,1.526c0,0.91,0.636,1.38,2.113,1.741c5.372,1.429,7.603,4.12,7.603,8.132
		C414.944,285.279,411.989,288.968,405.552,288.968z"/>
</g>
</svg>
