<?xml version="1.0" encoding="utf-8"?>
<!-- Generator: Adobe Illustrator 16.0.0, SVG Export Plug-In . SVG Version: 6.00 Build 0)  -->
<!DOCTYPE svg PUBLIC "-//W3C//DTD SVG 1.1//EN" "http://www.w3.org/Graphics/SVG/1.1/DTD/svg11.dtd">
<svg version="1.1" id="Layer_1" xmlns="http://www.w3.org/2000/svg" xmlns:xlink="http://www.w3.org/1999/xlink" x="0px" y="0px"
	 width="500px" height="406.5px" viewBox="0 0 500 406.5" enable-background="new 0 0 500 406.5" xml:space="preserve">
<g>
	
		<line fill="none" stroke="#F29400" stroke-width="3.6706" stroke-linecap="round" x1="452.701" y1="-247.745" x2="452.701" y2="335.858"/>
	
		<line fill="none" stroke="#009EE0" stroke-width="3.6706" stroke-linecap="round" x1="477.513" y1="-284.48" x2="477.513" y2="191.808"/>
	
		<line fill="none" stroke="#E2001A" stroke-width="3.6706" stroke-linecap="round" x1="231.692" y1="-292.987" x2="231.692" y2="299.123"/>
	
		<line fill="none" stroke="#97BF0D" stroke-width="3.6706" stroke-linecap="round" x1="35.016" y1="-302.423" x2="35.016" y2="255.453"/>
	<path fill="none" stroke="#E2001A" stroke-width="3.6706" stroke-linecap="round" d="M227.217,315.636c0,0-2.892,2.026-5.935,4.526
		"/>
	<path fill="none" stroke="#97BF0D" stroke-width="3.6706" stroke-linecap="round" d="M19.585,253.834
		c-2.955-3.926-2.334-3.059-4.73-5.777"/>
	<path fill="none" stroke="#F29400" stroke-width="3.6706" stroke-linecap="round" d="M461.991,385.282c0,0-5.123-2.951-7.727-5.907
		"/>
	<path fill="none" stroke="#009EE0" stroke-width="3.6706" stroke-linecap="round" d="M480.104,199.08c0,0,5.124-2.95,7.728-5.905"
		/>
	<g>
		<path d="M51.011,290.437l-3.849,4.611c-1.225,1.476-2.707,2.184-4.534,2.35l-18.476,1.69c-1.82,0.168-3.411-0.272-4.882-1.495
			l-6.087-5.065l6.202-7.456l4.515,3.759c0.425,0.353,0.93,0.505,1.404,0.454l14.334-1.306c0.473-0.041,0.952-0.278,1.295-0.7
			l0.085-0.103c0.346-0.424,0.504-0.828,0.448-1.404l-0.342-3.849c-0.085-0.955-0.936-1.758-1.918-1.761l-21.214-0.876
			c-3.213-0.098-6.274-2.829-6.57-6.094l-0.721-7.891c-0.176-1.918,0.354-3.619,1.575-5.088l3.843-4.618
			c1.229-1.47,2.716-2.189,4.539-2.349l18.471-1.685c1.828-0.174,3.424,0.267,4.885,1.487l6.085,5.067l-6.203,7.45l-4.519-3.762
			c-0.412-0.348-0.917-0.492-1.396-0.444l-14.428,1.312c-0.48,0.042-0.937,0.285-1.291,0.709l-0.089,0.094
			c-0.352,0.424-0.501,0.83-0.449,1.412l0.291,3.262c0.098,0.962,0.939,1.755,1.917,1.76l21.32,0.879
			c3.201,0.1,6.258,2.822,6.564,6.086l0.769,8.468C52.758,287.27,52.238,288.963,51.011,290.437z"/>
		<path d="M98.612,292.296l-2.139-6.396l-4.189,5.041c-1.23,1.461-2.711,2.184-4.543,2.352l-9.718,0.885
			c-1.827,0.161-3.424-0.275-4.88-1.485l-4.625-3.852c-1.46-1.224-2.288-2.801-2.468-4.725l-3.165-34.726l10.97-0.997l3.109,34.146
			c0.048,0.572,0.279,0.938,0.7,1.301l0.839,0.688c0.425,0.352,0.92,0.499,1.395,0.461l5.965-0.544
			c0.485-0.05,0.948-0.286,1.296-0.697l6.818-8.188c0.354-0.422,0.504-0.82,0.455-1.396l-2.499-27.421l10.969-0.996l3.442,37.797
			l2.653,7.812L98.612,292.296z"/>
		<path d="M157.684,280.713l-3.84,4.615c-1.234,1.466-2.72,2.187-4.542,2.353l-18.469,1.687c-1.832,0.166-3.419-0.271-4.884-1.497
			l-6.094-5.073l6.212-7.446l4.516,3.752c0.419,0.349,0.915,0.504,1.391,0.465l14.333-1.311c0.478-0.045,0.946-0.29,1.296-0.699
			l0.088-0.11c0.351-0.419,0.501-0.818,0.446-1.392l-0.344-3.848c-0.089-0.966-0.931-1.764-1.908-1.764l-21.228-0.883
			c-3.204-0.094-6.27-2.821-6.567-6.091l-0.711-7.891c-0.179-1.926,0.338-3.623,1.564-5.088l3.85-4.617
			c1.224-1.473,2.707-2.187,4.536-2.358l18.47-1.68c1.829-0.169,3.419,0.273,4.89,1.503l6.087,5.057l-6.209,7.458l-4.516-3.764
			c-0.411-0.35-0.907-0.497-1.391-0.456l-14.432,1.319c-0.486,0.042-0.945,0.279-1.295,0.695l-0.081,0.106
			c-0.35,0.426-0.509,0.828-0.457,1.4l0.298,3.268c0.092,0.966,0.932,1.765,1.905,1.77l21.32,0.866
			c3.207,0.095,6.269,2.827,6.569,6.096l0.769,8.468C159.435,277.541,158.903,279.237,157.684,280.713z"/>
		<path d="M213.567,275.614l-3.848,4.616c-1.219,1.47-2.704,2.19-4.53,2.361l-12.119,1.1c-1.825,0.164-3.415-0.269-4.892-1.493
			l-3.986-3.32l3.783,41.093l-10.962,0.997l-6.754-73.703l-2.238-7.451l9.997-0.914l2.136,6.408l4.203-5.041
			c1.226-1.478,2.71-2.188,4.535-2.36l12.119-1.101c1.833-0.17,3.424,0.271,4.89,1.495l4.618,3.843
			c1.47,1.223,2.295,2.793,2.47,4.719l2.154,23.666C215.318,272.451,214.792,274.147,213.567,275.614z M202.079,248.443
			c-0.053-0.578-0.287-0.949-0.709-1.302l-0.099-0.087c-0.417-0.346-0.919-0.495-1.403-0.45l-9.717,0.889
			c-0.473,0.041-0.938,0.276-1.296,0.699l-6.203,7.445c-0.343,0.429-0.507,0.818-0.448,1.4l0.822,9.047
			c0.045,0.572,0.282,0.935,0.701,1.293l7.447,6.202c0.422,0.35,0.919,0.5,1.398,0.459l9.719-0.884
			c0.476-0.048,0.942-0.28,1.293-0.7l0.088-0.108c0.344-0.423,0.504-0.822,0.445-1.396L202.079,248.443z"/>
		<path d="M236.083,259.793l0.746,8.18c0.058,0.575,0.289,0.935,0.695,1.286l0.106,0.09c0.423,0.35,0.919,0.498,1.396,0.452
			l16.456-1.499c0.484-0.044,0.945-0.274,1.295-0.694l4.363-5.25l7.455,6.209l-5.675,6.812c-1.225,1.477-2.721,2.194-4.544,2.367
			l-20.489,1.861c-1.823,0.162-3.411-0.271-4.89-1.495l-4.617-3.853c-1.466-1.217-2.288-2.794-2.459-4.719l-2.162-23.657
			c-0.179-1.93,0.347-3.627,1.571-5.097l3.847-4.617c1.226-1.462,2.711-2.188,4.536-2.349l20.489-1.868
			c1.831-0.165,3.415,0.271,4.89,1.493l4.615,3.846c1.472,1.223,2.298,2.795,2.473,4.726l1.363,14.903L236.083,259.793z
			 M255.267,243.592c-0.054-0.575-0.274-0.944-0.704-1.296l-0.102-0.09c-0.415-0.352-0.927-0.493-1.397-0.454l-16.451,1.501
			c-0.481,0.048-0.945,0.276-1.303,0.701l-0.077,0.109c-0.35,0.418-0.508,0.814-0.459,1.396l0.492,5.382l20.495-1.865
			L255.267,243.592z"/>
		<path d="M311.858,272.858l-3.113-34.146c-0.048-0.572-0.271-0.945-0.703-1.301l-0.832-0.689c-0.426-0.352-0.915-0.496-1.403-0.455
			l-5.961,0.54c-0.479,0.049-0.94,0.282-1.298,0.695l-6.815,8.191c-0.346,0.423-0.504,0.82-0.452,1.398l2.501,27.411l-10.971,1.002
			l-3.448-37.8l-2.649-7.806l10.392-0.943l2.145,6.396l4.181-5.041c1.229-1.474,2.715-2.184,4.544-2.35l9.716-0.888
			c1.828-0.167,3.414,0.261,4.882,1.485l4.625,3.847c1.464,1.229,2.287,2.805,2.467,4.729l3.159,34.721L311.858,272.858z"/>
		<path d="M370.244,267.542l-2.126-6.408l-4.205,5.037c-1.225,1.473-2.716,2.191-4.537,2.363l-12.122,1.104
			c-1.822,0.163-3.413-0.271-4.885-1.498l-4.615-3.843c-1.475-1.226-2.296-2.802-2.473-4.723l-2.154-23.662
			c-0.174-1.93,0.345-3.622,1.576-5.097l3.84-4.607c1.227-1.469,2.711-2.188,4.535-2.36l12.123-1.104
			c1.827-0.166,3.42,0.271,4.89,1.5l3.984,3.32l-3.63-35.826l10.965-1.001l6.608,68.432l2.234,7.462L370.244,267.542z
			 M365.243,240.354c-0.045-0.571-0.279-0.935-0.697-1.294l-7.449-6.214c-0.424-0.346-0.92-0.486-1.401-0.449l-9.712,0.891
			c-0.482,0.037-0.94,0.276-1.297,0.695l-0.089,0.107c-0.349,0.418-0.5,0.825-0.455,1.399l2.053,22.504
			c0.051,0.579,0.283,0.949,0.708,1.295l0.1,0.085c0.423,0.354,0.919,0.506,1.396,0.456l9.717-0.883
			c0.479-0.041,0.951-0.277,1.303-0.701l6.193-7.448c0.354-0.428,0.514-0.821,0.461-1.403L365.243,240.354z"/>
		<path d="M401.333,244.722l0.743,8.186c0.058,0.566,0.284,0.938,0.698,1.29l0.11,0.087c0.424,0.346,0.915,0.498,1.4,0.448
			l16.446-1.498c0.484-0.04,0.94-0.276,1.295-0.694l4.376-5.251l7.445,6.211l-5.676,6.82c-1.229,1.479-2.712,2.187-4.55,2.353
			l-20.484,1.864c-1.819,0.173-3.41-0.268-4.884-1.488l-4.621-3.848c-1.46-1.228-2.283-2.798-2.468-4.724l-2.148-23.661
			c-0.184-1.931,0.347-3.615,1.572-5.093l3.835-4.612c1.229-1.475,2.716-2.188,4.543-2.357l20.484-1.868
			c1.832-0.162,3.428,0.27,4.89,1.494l4.614,3.847c1.479,1.223,2.298,2.801,2.474,4.724l1.366,14.909L401.333,244.722z
			 M420.521,228.523c-0.057-0.574-0.281-0.948-0.704-1.295l-0.103-0.088c-0.419-0.35-0.926-0.491-1.405-0.452l-16.455,1.496
			c-0.474,0.045-0.934,0.276-1.292,0.699l-0.084,0.113c-0.35,0.413-0.495,0.814-0.45,1.393l0.491,5.388l20.491-1.865
			L420.521,228.523z"/>
		<path d="M479.324,257.597l-2.136-6.404l-4.193,5.045c-1.226,1.465-2.712,2.182-4.533,2.348l-12.131,1.108
			c-1.822,0.163-3.408-0.273-4.877-1.495l-4.628-3.847c-1.468-1.227-2.289-2.802-2.464-4.727l-2.156-23.661
			c-0.175-1.917,0.347-3.618,1.57-5.089l3.854-4.612c1.222-1.474,2.706-2.193,4.535-2.356l12.118-1.113
			c1.83-0.157,3.419,0.287,4.896,1.504l3.981,3.322l-3.633-34.911l10.964-1.001l6.608,67.519l2.232,7.46L479.324,257.597z
			 M474.322,230.406c-0.045-0.571-0.271-0.938-0.693-1.288l-7.455-6.212c-0.415-0.354-0.921-0.497-1.399-0.456l-9.71,0.891
			c-0.485,0.043-0.95,0.282-1.296,0.704l-0.084,0.099c-0.354,0.424-0.509,0.821-0.46,1.4l2.05,22.504
			c0.057,0.583,0.277,0.945,0.705,1.291l0.098,0.099c0.428,0.345,0.917,0.499,1.4,0.451l9.716-0.889
			c0.481-0.039,0.949-0.278,1.297-0.702l6.213-7.45c0.344-0.419,0.501-0.812,0.446-1.396L474.322,230.406z"/>
	</g>
	<g>
		<path d="M261.508,365.851l-4.613,3.839c-1.474,1.226-3.062,1.667-4.889,1.497l-12.115-1.107c-1.836-0.158-3.32-0.871-4.539-2.348
			l-4.202-5.04l-2.132,6.402l-10.001-0.898l2.23-7.47l5.435-68.683l10.973,1.002l-2.476,36.069l3.991-3.326
			c1.464-1.211,3.061-1.653,4.878-1.487l12.126,1.103c1.827,0.159,3.311,0.88,4.536,2.354l3.85,4.618
			c1.229,1.479,1.747,3.169,1.573,5.088l-2.153,23.665C263.799,363.041,262.978,364.625,261.508,365.851z M255.116,337.053
			c0.049-0.593-0.102-0.995-0.46-1.409l-0.085-0.107c-0.346-0.411-0.815-0.646-1.295-0.701l-9.718-0.877
			c-0.479-0.053-0.974,0.106-1.397,0.45l-7.449,6.208c-0.419,0.353-0.643,0.714-0.694,1.292l-0.832,9.049
			c-0.047,0.578,0.107,0.979,0.459,1.397l6.209,7.44c0.346,0.421,0.806,0.668,1.289,0.714l9.715,0.871
			c0.479,0.059,0.98-0.103,1.405-0.447l0.104-0.084c0.419-0.352,0.645-0.714,0.695-1.304L255.116,337.053z"/>
		<path d="M286.517,354.351l-0.74,8.175c-0.057,0.572,0.104,0.991,0.451,1.403l0.084,0.104c0.354,0.414,0.812,0.668,1.292,0.696
			l16.447,1.497c0.483,0.054,0.976-0.102,1.399-0.45l5.246-4.376l6.215,7.463l-6.83,5.678c-1.473,1.212-3.061,1.665-4.889,1.493
			l-20.48-1.863c-1.831-0.172-3.314-0.889-4.54-2.362l-3.853-4.607c-1.216-1.474-1.741-3.175-1.565-5.093l2.147-23.659
			c0.173-1.927,0.999-3.498,2.468-4.73l4.615-3.842c1.478-1.221,3.064-1.666,4.893-1.498l20.481,1.872
			c1.832,0.165,3.315,0.876,4.541,2.354l3.854,4.614c1.22,1.468,1.744,3.169,1.563,5.091l-1.354,14.903L286.517,354.351z
			 M308.306,341.889c0.054-0.578-0.098-0.985-0.46-1.404l-0.084-0.103c-0.344-0.413-0.81-0.66-1.296-0.706l-16.444-1.491
			c-0.479-0.047-0.972,0.104-1.399,0.456l-0.105,0.078c-0.412,0.358-0.642,0.726-0.699,1.3l-0.49,5.383l20.488,1.873
			L308.306,341.889z"/>
		<path d="M330.981,378.382l4.963-54.541l-9.717-0.888l0.874-9.62l20.684,1.884l-5.833,64.157L330.981,378.382z"/>
		<path d="M360.794,381.089l3.291-36.16l-9.714-0.889l0.877-9.615l20.686,1.872l-4.172,45.789L360.794,381.089z M365.029,327.074
			l1.124-12.315l12.318,1.118l-1.12,12.312L365.029,327.074z"/>
		<path d="M398.671,364.56l-0.739,8.174c-0.054,0.574,0.103,0.987,0.446,1.396l0.098,0.106c0.349,0.423,0.81,0.657,1.283,0.694
			l16.45,1.499c0.479,0.053,0.985-0.094,1.396-0.447l5.252-4.377l6.204,7.458l-6.811,5.677c-1.479,1.224-3.065,1.667-4.901,1.497
			l-20.481-1.855c-1.825-0.17-3.312-0.896-4.542-2.356l-3.843-4.621c-1.222-1.462-1.751-3.167-1.571-5.094l2.156-23.653
			c0.168-1.927,0.994-3.498,2.468-4.727l4.604-3.848c1.478-1.226,3.064-1.67,4.892-1.49l20.487,1.861
			c1.827,0.161,3.316,0.873,4.54,2.354l3.846,4.616c1.229,1.47,1.756,3.162,1.58,5.084l-1.359,14.908L398.671,364.56z
			 M420.465,352.094c0.051-0.575-0.108-0.979-0.461-1.402l-0.076-0.104c-0.352-0.415-0.823-0.655-1.306-0.694l-16.447-1.504
			c-0.479-0.046-0.975,0.104-1.397,0.456l-0.099,0.081c-0.43,0.362-0.65,0.726-0.703,1.303l-0.487,5.377l20.488,1.879
			L420.465,352.094z"/>
		<path d="M458.742,353.543l-3.299,36.169l-10.962-1.002l3.291-36.171l-8.085-0.729l0.889-9.615l8.081,0.728l0.723-7.979
			c0.173-1.93,0.986-3.497,2.463-4.724l3.879-3.24c1.469-1.227,3.056-1.656,4.888-1.487l16.168,1.465l-0.882,9.62l-13.465-1.222
			c-0.485-0.041-0.981,0.107-1.396,0.451l-0.106,0.085c-0.423,0.354-0.652,0.721-0.698,1.296l-0.611,6.729l15.491,1.414
			l-0.876,9.624L458.742,353.543z"/>
	</g>
	
		<line fill="none" stroke="#97BF0D" stroke-width="3.6706" stroke-linecap="round" x1="24.149" y1="252.837" x2="25.539" y2="262.477"/>
	<g>
		
			<line fill="none" stroke="#E2001A" stroke-width="3.6706" stroke-linecap="round" x1="225.02" y1="310.848" x2="236.483" y2="312.02"/>
		
			<line fill="none" stroke="#E2001A" stroke-width="3.6706" stroke-linecap="round" x1="225.41" y1="304.735" x2="237.265" y2="305.778"/>
	</g>
	<g>
		
			<line fill="none" stroke="#F29400" stroke-width="3.6706" stroke-linecap="round" x1="458.424" y1="374.892" x2="444.896" y2="372.796"/>
		
			<line fill="none" stroke="#F29400" stroke-width="3.6706" stroke-linecap="round" x1="458.912" y1="368.31" x2="445.39" y2="366.221"/>
	</g>
	<g>
		
			<line fill="none" stroke="#009EE0" stroke-width="3.6706" stroke-linecap="round" x1="483.486" y1="208.712" x2="471.703" y2="209.28"/>
		
			<line fill="none" stroke="#009EE0" stroke-width="3.6706" stroke-linecap="round" x1="483.341" y1="202.974" x2="471.558" y2="203.543"/>
	</g>
	
		<line fill="none" stroke="#97BF0D" stroke-width="3.6706" stroke-linecap="round" x1="29.345" y1="252.14" x2="30.734" y2="262.216"/>
</g>
</svg>
