<?xml version="1.0" encoding="utf-8"?>
<!-- Generator: Adobe Illustrator 16.0.0, SVG Export Plug-In . SVG Version: 6.00 Build 0)  -->
<!DOCTYPE svg PUBLIC "-//W3C//DTD SVG 1.1//EN" "http://www.w3.org/Graphics/SVG/1.1/DTD/svg11.dtd">
<svg version="1.1" id="Layer_1" xmlns="http://www.w3.org/2000/svg" xmlns:xlink="http://www.w3.org/1999/xlink" x="0px" y="0px"
	 width="500px" height="406.5px" viewBox="0 0 500 406.5" enable-background="new 0 0 500 406.5" xml:space="preserve">
<g>
	
		<line fill="none" stroke="#F29400" stroke-width="3.6706" stroke-linecap="round" x1="452.701" y1="-247.745" x2="452.701" y2="335.858"/>
	
		<line fill="none" stroke="#009EE0" stroke-width="3.6706" stroke-linecap="round" x1="477.513" y1="-284.48" x2="477.513" y2="191.808"/>
	
		<line fill="none" stroke="#E2001A" stroke-width="3.6706" stroke-linecap="round" x1="231.692" y1="-292.987" x2="231.692" y2="299.123"/>
	
		<line fill="none" stroke="#97BF0D" stroke-width="3.6706" stroke-linecap="round" x1="35.016" y1="-302.423" x2="35.016" y2="255.453"/>
	<path fill="none" stroke="#E2001A" stroke-width="3.6706" stroke-linecap="round" d="M227.217,315.636c0,0-2.892,2.026-5.935,4.526
		"/>
	<path fill="none" stroke="#97BF0D" stroke-width="3.6706" stroke-linecap="round" d="M19.585,253.834
		c-2.955-3.926-2.334-3.059-4.73-5.777"/>
	<path fill="none" stroke="#F29400" stroke-width="3.6706" stroke-linecap="round" d="M461.991,385.282c0,0-5.123-2.951-7.728-5.907
		"/>
	<path fill="none" stroke="#009EE0" stroke-width="3.6706" stroke-linecap="round" d="M480.104,199.08c0,0,5.125-2.95,7.729-5.905"
		/>
	<g>
		<path fill="#FFFFFF" d="M51.011,290.438l-3.849,4.61c-1.225,1.476-2.707,2.185-4.534,2.351l-18.476,1.689
			c-1.82,0.168-3.411-0.271-4.882-1.495l-6.087-5.065l6.202-7.455l4.515,3.759c0.425,0.353,0.93,0.505,1.404,0.454l14.334-1.307
			c0.473-0.041,0.952-0.277,1.295-0.699l0.085-0.104c0.346-0.424,0.504-0.828,0.448-1.404l-0.342-3.849
			c-0.085-0.954-0.936-1.758-1.918-1.761l-21.214-0.876c-3.213-0.099-6.274-2.829-6.57-6.095l-0.721-7.891
			c-0.176-1.918,0.354-3.619,1.575-5.088l3.843-4.617c1.229-1.471,2.716-2.189,4.539-2.35l18.471-1.686
			c1.828-0.174,3.424,0.268,4.885,1.487l6.085,5.067l-6.203,7.449l-4.519-3.762c-0.412-0.348-0.917-0.492-1.396-0.443l-14.428,1.312
			c-0.48,0.042-0.937,0.285-1.291,0.709l-0.089,0.095c-0.352,0.424-0.501,0.83-0.449,1.412l0.291,3.262
			c0.098,0.961,0.939,1.755,1.917,1.76l21.32,0.879c3.201,0.1,6.258,2.822,6.564,6.086l0.769,8.468
			C52.758,287.27,52.238,288.963,51.011,290.438z"/>
		<path fill="#FFFFFF" d="M98.612,292.296l-2.139-6.396l-4.189,5.041c-1.23,1.461-2.711,2.184-4.543,2.352l-9.718,0.885
			c-1.827,0.161-3.424-0.275-4.88-1.484l-4.625-3.853c-1.46-1.224-2.288-2.801-2.468-4.725l-3.165-34.726l10.97-0.998l3.109,34.146
			c0.048,0.572,0.279,0.938,0.7,1.301l0.839,0.688c0.425,0.353,0.92,0.5,1.395,0.461l5.965-0.543
			c0.485-0.051,0.948-0.286,1.296-0.697l6.818-8.188c0.354-0.422,0.504-0.82,0.455-1.396l-2.499-27.421l10.969-0.996l3.442,37.797
			l2.653,7.812L98.612,292.296z"/>
		<path fill="#FFFFFF" d="M157.684,280.713l-3.84,4.615c-1.234,1.466-2.72,2.188-4.542,2.354l-18.469,1.687
			c-1.832,0.166-3.419-0.271-4.884-1.497l-6.094-5.073l6.212-7.446l4.516,3.752c0.419,0.35,0.915,0.504,1.391,0.465l14.333-1.311
			c0.478-0.045,0.946-0.29,1.296-0.699l0.088-0.109c0.351-0.42,0.501-0.818,0.446-1.393l-0.344-3.848
			c-0.089-0.966-0.931-1.764-1.908-1.764l-21.228-0.883c-3.204-0.095-6.27-2.821-6.567-6.092l-0.711-7.891
			c-0.179-1.926,0.338-3.623,1.564-5.088l3.85-4.617c1.224-1.473,2.707-2.188,4.536-2.357l18.47-1.681
			c1.829-0.169,3.419,0.272,4.89,1.503l6.087,5.057l-6.209,7.459l-4.516-3.765c-0.411-0.35-0.907-0.497-1.391-0.456l-14.432,1.319
			c-0.486,0.042-0.945,0.278-1.295,0.694l-0.081,0.106c-0.35,0.427-0.509,0.828-0.457,1.4l0.298,3.268
			c0.092,0.966,0.932,1.765,1.905,1.771l21.32,0.865c3.207,0.096,6.269,2.827,6.569,6.096l0.769,8.469
			C159.435,277.541,158.903,279.236,157.684,280.713z"/>
		<path fill="#FFFFFF" d="M213.567,275.614l-3.848,4.616c-1.219,1.47-2.704,2.189-4.53,2.36l-12.119,1.101
			c-1.825,0.164-3.415-0.27-4.892-1.493l-3.986-3.32l3.783,41.093l-10.962,0.997l-6.754-73.702l-2.238-7.451l9.997-0.914
			l2.136,6.408l4.203-5.041c1.226-1.479,2.71-2.188,4.535-2.36l12.119-1.101c1.833-0.171,3.424,0.271,4.89,1.494l4.618,3.844
			c1.47,1.223,2.295,2.793,2.47,4.719l2.154,23.666C215.318,272.451,214.792,274.146,213.567,275.614z M202.079,248.443
			c-0.053-0.578-0.287-0.949-0.709-1.303l-0.099-0.086c-0.417-0.347-0.919-0.496-1.403-0.451l-9.717,0.89
			c-0.473,0.041-0.938,0.276-1.296,0.698l-6.203,7.445c-0.343,0.43-0.507,0.818-0.448,1.4l0.822,9.047
			c0.045,0.572,0.282,0.936,0.701,1.293l7.447,6.202c0.422,0.351,0.919,0.5,1.398,0.459l9.719-0.884
			c0.476-0.049,0.942-0.28,1.293-0.7l0.088-0.108c0.344-0.423,0.504-0.822,0.445-1.396L202.079,248.443z"/>
		<path fill="#FFFFFF" d="M236.083,259.793l0.746,8.18c0.058,0.575,0.289,0.936,0.695,1.286l0.106,0.091
			c0.423,0.35,0.919,0.498,1.396,0.451l16.457-1.499c0.483-0.044,0.944-0.274,1.295-0.694l4.363-5.25l7.454,6.209l-5.675,6.812
			c-1.225,1.477-2.721,2.194-4.544,2.367l-20.489,1.861c-1.823,0.162-3.411-0.271-4.89-1.496l-4.617-3.853
			c-1.466-1.217-2.288-2.794-2.459-4.719l-2.162-23.657c-0.179-1.93,0.347-3.627,1.571-5.097l3.847-4.617
			c1.226-1.462,2.711-2.188,4.536-2.349l20.489-1.868c1.831-0.165,3.415,0.271,4.89,1.493l4.615,3.846
			c1.473,1.223,2.298,2.795,2.473,4.727l1.363,14.902L236.083,259.793z M255.268,243.592c-0.055-0.574-0.274-0.943-0.705-1.296
			l-0.102-0.09c-0.415-0.353-0.927-0.493-1.396-0.454l-16.452,1.501c-0.481,0.048-0.945,0.276-1.303,0.701l-0.077,0.108
			c-0.35,0.418-0.508,0.814-0.459,1.396l0.492,5.382l20.495-1.864L255.268,243.592z"/>
		<path fill="#FFFFFF" d="M311.857,272.857l-3.112-34.146c-0.048-0.571-0.271-0.944-0.703-1.301l-0.832-0.688
			c-0.426-0.353-0.915-0.496-1.403-0.455l-5.961,0.539c-0.479,0.049-0.939,0.282-1.298,0.695l-6.815,8.191
			c-0.346,0.423-0.504,0.82-0.451,1.397l2.501,27.411l-10.972,1.002l-3.447-37.8l-2.649-7.806l10.392-0.943l2.146,6.396l4.181-5.041
			c1.229-1.475,2.715-2.185,4.545-2.351l9.715-0.888c1.828-0.167,3.414,0.261,4.883,1.484l4.625,3.848
			c1.464,1.229,2.287,2.805,2.467,4.729l3.159,34.721L311.857,272.857z"/>
		<path fill="#FFFFFF" d="M370.244,267.542l-2.126-6.408l-4.205,5.037c-1.226,1.474-2.716,2.19-4.537,2.363l-12.122,1.104
			c-1.822,0.162-3.413-0.271-4.885-1.498l-4.615-3.844c-1.475-1.227-2.296-2.802-2.473-4.723l-2.154-23.662
			c-0.174-1.93,0.346-3.622,1.576-5.098l3.84-4.606c1.227-1.469,2.711-2.188,4.535-2.36l12.123-1.104
			c1.826-0.166,3.42,0.271,4.89,1.5l3.984,3.32l-3.63-35.826l10.965-1.001l6.607,68.432l2.234,7.462L370.244,267.542z
			 M365.243,240.354c-0.045-0.57-0.279-0.935-0.697-1.293l-7.448-6.215c-0.425-0.346-0.921-0.486-1.401-0.449l-9.712,0.892
			c-0.482,0.037-0.94,0.276-1.297,0.694l-0.09,0.107c-0.349,0.418-0.5,0.825-0.455,1.399l2.054,22.504
			c0.051,0.579,0.282,0.948,0.708,1.295l0.1,0.085c0.424,0.354,0.919,0.506,1.396,0.456l9.717-0.884
			c0.479-0.04,0.951-0.276,1.303-0.7l6.193-7.448c0.354-0.428,0.514-0.82,0.461-1.402L365.243,240.354z"/>
		<path fill="#FFFFFF" d="M401.333,244.723l0.743,8.186c0.058,0.566,0.284,0.938,0.698,1.29l0.109,0.087
			c0.424,0.346,0.915,0.498,1.4,0.447l16.446-1.498c0.483-0.039,0.939-0.275,1.295-0.693l4.376-5.251l7.444,6.211l-5.676,6.819
			c-1.229,1.479-2.712,2.188-4.55,2.354l-20.484,1.864c-1.818,0.173-3.41-0.269-4.884-1.488l-4.621-3.848
			c-1.46-1.228-2.283-2.798-2.468-4.724l-2.147-23.662c-0.185-1.931,0.346-3.614,1.571-5.092l3.835-4.613
			c1.229-1.475,2.716-2.188,4.543-2.356l20.484-1.868c1.832-0.162,3.428,0.271,4.89,1.494l4.614,3.848
			c1.479,1.223,2.298,2.801,2.474,4.724l1.366,14.909L401.333,244.723z M420.521,228.523c-0.058-0.574-0.281-0.948-0.704-1.295
			l-0.104-0.088c-0.419-0.351-0.926-0.492-1.405-0.453l-16.455,1.496c-0.474,0.045-0.934,0.276-1.291,0.699l-0.084,0.113
			c-0.351,0.413-0.495,0.814-0.45,1.393l0.49,5.389l20.491-1.865L420.521,228.523z"/>
		<path fill="#FFFFFF" d="M479.324,257.598l-2.137-6.404l-4.192,5.045c-1.226,1.465-2.712,2.182-4.533,2.348l-12.131,1.107
			c-1.822,0.164-3.408-0.272-4.877-1.494l-4.628-3.848c-1.468-1.227-2.289-2.802-2.464-4.727l-2.156-23.661
			c-0.175-1.917,0.347-3.618,1.57-5.089l3.854-4.611c1.222-1.475,2.706-2.193,4.535-2.356l12.118-1.113
			c1.83-0.157,3.419,0.287,4.896,1.504l3.981,3.322l-3.633-34.911l10.964-1.001l6.607,67.519l2.232,7.461L479.324,257.598z
			 M474.322,230.406c-0.045-0.571-0.271-0.938-0.693-1.288l-7.455-6.212c-0.415-0.354-0.921-0.497-1.398-0.456l-9.71,0.891
			c-0.485,0.043-0.95,0.282-1.296,0.704l-0.084,0.1c-0.354,0.424-0.51,0.82-0.461,1.399l2.051,22.504
			c0.057,0.583,0.276,0.945,0.705,1.291l0.098,0.099c0.428,0.346,0.917,0.5,1.4,0.451l9.716-0.889
			c0.48-0.039,0.948-0.277,1.297-0.702l6.213-7.45c0.344-0.418,0.501-0.812,0.446-1.396L474.322,230.406z"/>
	</g>
	<g>
		<path fill="#FFFFFF" d="M261.508,365.851l-4.613,3.84c-1.474,1.226-3.062,1.667-4.889,1.497l-12.115-1.107
			c-1.836-0.158-3.32-0.871-4.539-2.348l-4.202-5.04l-2.132,6.401l-10.001-0.897l2.23-7.471l5.435-68.683l10.973,1.002
			l-2.476,36.069l3.991-3.326c1.464-1.211,3.061-1.653,4.878-1.487l12.126,1.104c1.827,0.159,3.311,0.88,4.536,2.354l3.851,4.618
			c1.229,1.479,1.746,3.169,1.572,5.088l-2.152,23.665C263.799,363.041,262.979,364.625,261.508,365.851z M255.116,337.053
			c0.049-0.593-0.103-0.995-0.46-1.409l-0.086-0.106c-0.346-0.411-0.814-0.646-1.295-0.701l-9.717-0.877
			c-0.479-0.053-0.974,0.106-1.397,0.45l-7.449,6.208c-0.419,0.353-0.643,0.714-0.694,1.292l-0.832,9.049
			c-0.047,0.578,0.107,0.979,0.459,1.397l6.209,7.439c0.346,0.421,0.806,0.668,1.289,0.714l9.714,0.871
			c0.479,0.06,0.98-0.103,1.406-0.447l0.104-0.084c0.419-0.352,0.645-0.714,0.695-1.304L255.116,337.053z"/>
		<path fill="#FFFFFF" d="M286.518,354.351l-0.74,8.176c-0.058,0.571,0.104,0.99,0.451,1.402l0.084,0.104
			c0.354,0.414,0.812,0.668,1.291,0.696l16.447,1.496c0.483,0.055,0.977-0.102,1.399-0.449l5.245-4.376l6.216,7.463l-6.83,5.678
			c-1.474,1.212-3.062,1.665-4.89,1.493l-20.479-1.863c-1.831-0.172-3.313-0.889-4.54-2.362l-3.854-4.606
			c-1.215-1.474-1.74-3.175-1.564-5.093l2.146-23.659c0.174-1.927,1-3.498,2.469-4.73l4.615-3.842
			c1.478-1.221,3.063-1.666,4.893-1.498l20.48,1.872c1.832,0.165,3.315,0.876,4.541,2.354l3.854,4.613
			c1.22,1.469,1.744,3.169,1.563,5.092l-1.354,14.902L286.518,354.351z M308.307,341.889c0.053-0.578-0.099-0.984-0.461-1.403
			l-0.084-0.104c-0.344-0.413-0.81-0.66-1.296-0.706l-16.444-1.491c-0.479-0.047-0.972,0.104-1.398,0.456l-0.105,0.078
			c-0.412,0.358-0.642,0.727-0.699,1.3l-0.489,5.384l20.487,1.873L308.307,341.889z"/>
		<path fill="#FFFFFF" d="M330.98,378.382l4.963-54.541l-9.717-0.888l0.875-9.62l20.684,1.884l-5.833,64.157L330.98,378.382z"/>
		<path fill="#FFFFFF" d="M360.794,381.089l3.291-36.16l-9.714-0.889l0.877-9.615l20.686,1.872l-4.172,45.789L360.794,381.089z
			 M365.029,327.074l1.123-12.315l12.318,1.118l-1.119,12.312L365.029,327.074z"/>
		<path fill="#FFFFFF" d="M398.671,364.56l-0.739,8.175c-0.054,0.573,0.104,0.986,0.446,1.396l0.098,0.106
			c0.35,0.423,0.811,0.656,1.283,0.693l16.45,1.499c0.479,0.054,0.985-0.094,1.396-0.446l5.252-4.377l6.203,7.457l-6.811,5.678
			c-1.479,1.224-3.065,1.667-4.901,1.497l-20.48-1.855c-1.825-0.17-3.312-0.896-4.542-2.355l-3.844-4.621
			c-1.221-1.462-1.75-3.167-1.57-5.095l2.156-23.652c0.168-1.927,0.994-3.498,2.468-4.728l4.604-3.848
			c1.479-1.226,3.064-1.67,4.893-1.49l20.487,1.861c1.826,0.161,3.315,0.873,4.539,2.354l3.847,4.616
			c1.229,1.471,1.756,3.162,1.58,5.084l-1.359,14.908L398.671,364.56z M420.465,352.094c0.051-0.575-0.107-0.979-0.461-1.401
			l-0.076-0.104c-0.352-0.415-0.822-0.655-1.306-0.694l-16.447-1.504c-0.479-0.046-0.975,0.104-1.396,0.456l-0.1,0.081
			c-0.43,0.362-0.649,0.727-0.703,1.304l-0.486,5.377l20.487,1.879L420.465,352.094z"/>
		<path fill="#FFFFFF" d="M458.742,353.543l-3.299,36.169l-10.963-1.002l3.291-36.171l-8.084-0.729l0.889-9.614l8.081,0.728
			l0.723-7.979c0.173-1.931,0.986-3.497,2.463-4.725l3.879-3.239c1.47-1.228,3.057-1.656,4.889-1.487l16.168,1.465l-0.882,9.62
			l-13.466-1.222c-0.484-0.041-0.98,0.106-1.396,0.45l-0.106,0.085c-0.423,0.354-0.651,0.722-0.697,1.296l-0.611,6.729l15.491,1.414
			l-0.876,9.624L458.742,353.543z"/>
	</g>
	
		<line fill="none" stroke="#97BF0D" stroke-width="3.6706" stroke-linecap="round" x1="24.149" y1="252.837" x2="25.539" y2="262.477"/>
	<g>
		
			<line fill="none" stroke="#E2001A" stroke-width="3.6706" stroke-linecap="round" x1="225.02" y1="310.848" x2="236.483" y2="312.02"/>
		
			<line fill="none" stroke="#E2001A" stroke-width="3.6706" stroke-linecap="round" x1="225.41" y1="304.734" x2="237.265" y2="305.777"/>
	</g>
	<g>
		
			<line fill="none" stroke="#F29400" stroke-width="3.6706" stroke-linecap="round" x1="458.424" y1="374.892" x2="444.896" y2="372.796"/>
		
			<line fill="none" stroke="#F29400" stroke-width="3.6706" stroke-linecap="round" x1="458.912" y1="368.31" x2="445.39" y2="366.221"/>
	</g>
	<g>
		
			<line fill="none" stroke="#009EE0" stroke-width="3.6706" stroke-linecap="round" x1="483.486" y1="208.712" x2="471.703" y2="209.279"/>
		
			<line fill="none" stroke="#009EE0" stroke-width="3.6706" stroke-linecap="round" x1="483.341" y1="202.974" x2="471.558" y2="203.543"/>
	</g>
	
		<line fill="none" stroke="#97BF0D" stroke-width="3.6706" stroke-linecap="round" x1="29.345" y1="252.141" x2="30.734" y2="262.216"/>
</g>
</svg>
