<?xml version="1.0" encoding="utf-8"?>
<!-- Generator: Adobe Illustrator 16.0.0, SVG Export Plug-In . SVG Version: 6.00 Build 0)  -->
<!DOCTYPE svg PUBLIC "-//W3C//DTD SVG 1.1//EN" "http://www.w3.org/Graphics/SVG/1.1/DTD/svg11.dtd">
<svg version="1.1" id="Layer_1" xmlns="http://www.w3.org/2000/svg" xmlns:xlink="http://www.w3.org/1999/xlink" x="0px" y="0px"
	 width="500px" height="500px" viewBox="0 0 500 500" enable-background="new 0 0 500 500" xml:space="preserve">
<rect x="-8" y="-6" fill="#FCEE7B" width="514" height="515"/>
<g>
	<path fill="#9B2063" d="M340.528,74.708L155.97,83.06c0,0-53.012,168.691-53.012,173.699c0,5.015,44.97,161.988,44.97,161.988
		l158.768,25.061l73.999-134.809L340.528,74.708z"/>
	<polygon fill="#831453" points="380.694,308.999 342.08,83.873 259.945,277.344 150.056,418.848 306.695,443.808 	"/>
	<g>
		
			<line fill="none" stroke="#FFFFFF" stroke-width="10.4602" stroke-miterlimit="10" x1="180.411" y1="112.861" x2="223.951" y2="109.543"/>
		
			<line fill="none" stroke="#FFFFFF" stroke-width="10.4602" stroke-miterlimit="10" x1="202.18" y1="111.203" x2="201.625" y2="151.921"/>
		
			<line fill="none" stroke="#FFFFFF" stroke-width="10.4602" stroke-miterlimit="10" x1="235.249" y1="104.024" x2="234.252" y2="149.646"/>
		
			<line fill="none" stroke="#FFFFFF" stroke-width="10.4602" stroke-miterlimit="10" x1="254.825" y1="102.609" x2="255.346" y2="148.297"/>
		
			<line fill="none" stroke="#FFFFFF" stroke-width="10.4602" stroke-miterlimit="10" x1="233.786" y1="127.811" x2="254.757" y2="126.275"/>
		<polyline fill="none" stroke="#FFFFFF" stroke-width="10.4602" stroke-miterlimit="10" points="306.156,104.093 270.988,106.421 
			270.479,143.827 305.899,141.329 		"/>
		
			<line fill="none" stroke="#FFFFFF" stroke-width="10.4602" stroke-miterlimit="10" x1="270.734" y1="125.123" x2="302.505" y2="122.461"/>
	</g>
	<path fill="none" stroke="#FFFFFF" stroke-width="23.7965" stroke-linejoin="bevel" stroke-miterlimit="10" d="M183.613,194.777
		l120.421-8.623l-86.026,70.333c0,0,133.645-14.278,98.783,70.928c-34.861,85.209-139.954,32.628-139.954,32.628"/>
</g>
</svg>
