<?xml version="1.0" encoding="utf-8"?>
<!-- Generator: Adobe Illustrator 16.0.0, SVG Export Plug-In . SVG Version: 6.00 Build 0)  -->
<!DOCTYPE svg PUBLIC "-//W3C//DTD SVG 1.1//EN" "http://www.w3.org/Graphics/SVG/1.1/DTD/svg11.dtd">
<svg version="1.1" id="Layer_1" xmlns="http://www.w3.org/2000/svg" xmlns:xlink="http://www.w3.org/1999/xlink" x="0px" y="0px"
	 width="500px" height="500px" viewBox="0 0 500 500" enable-background="new 0 0 500 500" xml:space="preserve">
<rect x="-8" y="-6" fill="#FCEE7B" width="514" height="515"/>
<g>
	<path fill="#9B2063" d="M340.528,64.7L155.97,73.052c0,0-53.012,168.691-53.012,173.699c0,5.015,44.97,161.988,44.97,161.988
		L306.695,433.8l73.999-134.809L340.528,64.7z"/>
	<polygon fill="#831453" points="380.694,298.991 342.08,73.865 259.945,267.336 150.056,408.84 306.695,433.8 	"/>
	<g>
		
			<line fill="none" stroke="#FFFFFF" stroke-width="10.4602" stroke-miterlimit="10" x1="180.411" y1="102.853" x2="223.951" y2="99.535"/>
		
			<line fill="none" stroke="#FFFFFF" stroke-width="10.4602" stroke-miterlimit="10" x1="202.18" y1="101.195" x2="201.625" y2="141.914"/>
		
			<line fill="none" stroke="#FFFFFF" stroke-width="10.4602" stroke-miterlimit="10" x1="235.249" y1="94.017" x2="234.252" y2="139.638"/>
		
			<line fill="none" stroke="#FFFFFF" stroke-width="10.4602" stroke-miterlimit="10" x1="254.825" y1="92.602" x2="255.346" y2="138.29"/>
		
			<line fill="none" stroke="#FFFFFF" stroke-width="10.4602" stroke-miterlimit="10" x1="233.786" y1="117.803" x2="254.757" y2="116.267"/>
		<polyline fill="none" stroke="#FFFFFF" stroke-width="10.4602" stroke-miterlimit="10" points="306.156,94.085 270.988,96.413 
			270.479,133.819 305.899,131.321 		"/>
		
			<line fill="none" stroke="#FFFFFF" stroke-width="10.4602" stroke-miterlimit="10" x1="270.734" y1="115.115" x2="302.505" y2="112.454"/>
	</g>
	<path fill="none" stroke="#FFFFFF" stroke-width="23.7965" stroke-linejoin="bevel" stroke-miterlimit="10" d="M183.613,184.77
		l120.421-8.623l-86.026,70.333c0,0,133.645-14.278,98.783,70.928c-34.861,85.209-139.954,32.628-139.954,32.628"/>
</g>
</svg>
