<?xml version="1.0" encoding="utf-8"?>
<!-- Generator: Adobe Illustrator 16.0.0, SVG Export Plug-In . SVG Version: 6.00 Build 0)  -->
<!DOCTYPE svg PUBLIC "-//W3C//DTD SVG 1.1//EN" "http://www.w3.org/Graphics/SVG/1.1/DTD/svg11.dtd">
<svg version="1.1" id="Layer_1" xmlns="http://www.w3.org/2000/svg" xmlns:xlink="http://www.w3.org/1999/xlink" x="0px" y="0px"
	 width="500px" height="500px" viewBox="0 0 500 500" enable-background="new 0 0 500 500" xml:space="preserve">
<g>
	<polygon fill="#9B2063" points="1.001,500.001 100.162,500.001 263.556,290 386.892,-1 1.001,-1 	"/>
	<polygon fill="#831453" points="100.162,500.001 500,500.001 500,-1 386.892,-1 263.556,290 	"/>
</g>
<rect x="-8" y="-627" fill="#9B2063" width="514" height="515"/>
<polygon fill="#831453" points="678.5,-688.5 417.5,-688.5 265.556,-330 70.5,-80.5 531.5,-93.5 "/>
<g>
	
		<line fill="none" stroke="#FFFFFF" stroke-width="12.1203" stroke-miterlimit="10" x1="167.851" y1="98.681" x2="218.301" y2="94.836"/>
	
		<line fill="none" stroke="#FFFFFF" stroke-width="12.1203" stroke-miterlimit="10" x1="193.075" y1="96.759" x2="192.432" y2="143.941"/>
	
		<line fill="none" stroke="#FFFFFF" stroke-width="12.1203" stroke-miterlimit="10" x1="231.392" y1="88.442" x2="230.237" y2="141.304"/>
	
		<line fill="none" stroke="#FFFFFF" stroke-width="12.1203" stroke-miterlimit="10" x1="254.075" y1="86.803" x2="254.679" y2="139.742"/>
	
		<line fill="none" stroke="#FFFFFF" stroke-width="12.1203" stroke-miterlimit="10" x1="229.697" y1="116.003" x2="253.996" y2="114.224"/>
	<polyline fill="none" stroke="#FFFFFF" stroke-width="12.1203" stroke-miterlimit="10" points="313.553,88.521 272.804,91.219 
		272.213,134.561 313.254,131.667 	"/>
	
		<line fill="none" stroke="#FFFFFF" stroke-width="12.1203" stroke-miterlimit="10" x1="272.509" y1="112.889" x2="309.322" y2="109.806"/>
</g>
<path fill="none" stroke="#FFFFFF" stroke-width="27.5732" stroke-linejoin="bevel" stroke-miterlimit="10" d="M171.561,193.599
	l139.533-9.992l-99.679,81.496c0,0,154.856-16.544,114.461,82.185c-40.395,98.732-162.167,37.807-162.167,37.807"/>
</svg>
